<svg width="46" height="11" viewBox="0 0 46 11" fill="none" xmlns="http://www.w3.org/2000/svg">
<path d="M0.14 10V0.808H0.152L5.06 7.768L4.316 7.6L9.212 0.808H9.236V10H7.496V4.732L7.604 5.632L4.616 9.88H4.592L1.52 5.632L1.82 4.804V10H0.14ZM14.5189 1.168H20.5429V2.848H16.2589V4.732H20.0509V6.412H16.2589V8.32H20.7109V10H14.5189V1.168ZM33.4191 10.36L26.7231 4.312L27.2391 4.6L27.2751 10H25.5111V0.819999H25.5831L32.1351 6.844L31.7511 6.676L31.7151 1.168H33.4671V10.36H33.4191ZM40.3016 6.736C40.3016 7.016 40.3856 7.284 40.5536 7.54C40.7216 7.796 40.9416 8.004 41.2136 8.164C41.4936 8.324 41.7976 8.404 42.1256 8.404C42.4856 8.404 42.8056 8.324 43.0856 8.164C43.3656 8.004 43.5856 7.796 43.7456 7.54C43.9136 7.284 43.9976 7.016 43.9976 6.736V1.168H45.7136V6.772C45.7136 7.42 45.5536 7.996 45.2336 8.5C44.9136 8.996 44.4816 9.388 43.9376 9.676C43.3936 9.956 42.7896 10.096 42.1256 10.096C41.4696 10.096 40.8696 9.956 40.3256 9.676C39.7896 9.388 39.3616 8.996 39.0416 8.5C38.7216 7.996 38.5616 7.42 38.5616 6.772V1.168H40.3016V6.736Z" fill="#03110E"/>
</svg>
